<?xml version="1.0" standalone="no"?>
<!DOCTYPE svg PUBLIC "-//W3C//DTD SVG 20010904//EN"
 "http://www.w3.org/TR/2001/REC-SVG-20010904/DTD/svg10.dtd">
<svg version="1.0" xmlns="http://www.w3.org/2000/svg"
 width="800.000000pt" height="175.000000pt" viewBox="0 0 800.000000 175.000000"
 preserveAspectRatio="xMidYMid meet">

<g transform="translate(0.000000,175.000000) scale(0.100000,-0.100000)"
fill="#000000" stroke="none">
<path d="M2440 905 l0 -655 120 0 120 0 0 389 0 388 68 6 c85 9 182 9 250 1
l52 -7 0 -382 0 -383 23 -6 c29 -8 181 -8 201 0 14 5 16 50 16 400 l0 394
-105 0 -105 0 0 100 0 100 -197 2 -198 3 -3 146 c-3 172 9 159 -144 159 l-98
0 0 -655z"/>
<path d="M5385 1550 c-121 -14 -180 -72 -204 -205 -7 -37 -11 -245 -11 -577
l0 -518 120 0 120 0 2 392 3 393 150 6 c83 3 151 7 153 7 1 1 2 47 2 102 l0
100 -149 0 c-161 0 -164 1 -154 56 10 53 14 54 179 54 l154 0 0 100 0 100
-152 -1 c-84 -1 -180 -5 -213 -9z"/>
<path d="M4490 1261 c-201 -28 -291 -126 -326 -352 -29 -190 -1 -431 62 -530
32 -52 55 -72 114 -103 115 -61 375 -69 498 -16 80 35 139 110 160 207 l10 43
-115 0 -114 0 -32 -34 c-37 -38 -100 -53 -183 -41 -106 15 -145 59 -159 178
l-7 57 300 0 c209 0 303 3 308 11 3 6 9 59 12 118 11 251 -56 392 -213 440
-70 22 -234 33 -315 22z m225 -220 c37 -20 75 -93 75 -143 l0 -38 -192 2 -193
3 3 45 c8 111 90 166 227 153 28 -3 64 -13 80 -22z"/>
<path d="M6049 1261 c-111 -12 -179 -46 -215 -107 -27 -45 -29 -59 -33 -165
-5 -189 31 -268 139 -304 26 -9 117 -24 203 -34 168 -20 202 -33 213 -77 10
-40 -3 -97 -28 -115 -27 -21 -123 -32 -194 -23 -60 7 -101 33 -106 67 -3 21
-8 22 -121 25 l-119 3 7 -53 c17 -131 44 -179 119 -214 75 -34 224 -48 370
-35 142 14 195 32 240 81 48 53 66 121 66 246 0 215 -48 260 -306 289 -77 9
-154 19 -173 21 -46 7 -81 45 -81 86 1 88 29 108 153 108 92 0 129 -17 147
-66 9 -23 13 -24 124 -24 l114 0 -5 48 c-13 135 -55 197 -154 226 -62 19 -256
28 -360 17z"/>
<path d="M3490 750 l0 -500 120 0 120 0 0 385 0 385 188 2 187 3 2 99 c1 54
-1 104 -4 112 -4 12 -58 14 -309 14 l-304 0 0 -500z"/>
</g>
</svg>
