<?xml version="1.0" standalone="no"?>
<!DOCTYPE svg PUBLIC "-//W3C//DTD SVG 20010904//EN"
 "http://www.w3.org/TR/2001/REC-SVG-20010904/DTD/svg10.dtd">
<svg version="1.0" xmlns="http://www.w3.org/2000/svg"
 width="5668.000000pt" height="1505.000000pt" viewBox="0 0 5668.000000 1505.000000"
 preserveAspectRatio="xMidYMid meet">

<g transform="translate(0.000000,1505.000000) scale(0.100000,-0.100000)"
fill="#000000" stroke="none">
<path d="M17500 9760 c-914 -87 -1511 -465 -1660 -1052 -71 -275 -32 -615 96
-845 183 -329 554 -535 1136 -632 148 -25 558 -67 1188 -121 256 -22 494 -45
530 -50 309 -50 443 -160 443 -367 0 -68 -4 -91 -27 -136 -37 -77 -110 -141
-219 -192 -159 -74 -337 -108 -669 -127 -691 -39 -1454 121 -2103 440 -88 44
-206 106 -262 140 l-103 61 0 -489 0 -489 83 -49 c814 -490 2119 -672 3078
-432 615 155 1015 473 1157 920 44 139 56 227 56 395 -1 319 -91 553 -291 751
-159 158 -381 273 -683 353 -233 62 -338 75 -1540 191 -234 22 -469 50 -524
61 -169 34 -279 91 -334 172 -40 58 -52 99 -52 176 0 260 292 385 947 407 734
25 1517 -128 2157 -420 43 -20 82 -36 87 -36 5 0 8 203 7 472 l-3 472 -145 62
c-429 185 -884 297 -1450 354 -138 15 -779 21 -900 10z"/>
<path d="M44570 9760 c-590 -57 -1046 -231 -1336 -512 -191 -185 -292 -367
-339 -610 -21 -107 -21 -334 -1 -449 82 -461 407 -757 991 -904 248 -63 497
-93 1390 -170 533 -45 591 -52 700 -80 229 -58 328 -161 329 -341 0 -102 -30
-170 -108 -242 -139 -127 -378 -190 -803 -214 -710 -39 -1483 126 -2145 458
-70 35 -173 91 -228 124 l-100 59 0 -489 0 -488 93 -55 c773 -459 1973 -648
2917 -461 807 160 1285 577 1360 1184 38 312 -40 622 -210 833 -210 262 -580
429 -1115 506 -77 11 -471 52 -875 91 -404 39 -780 80 -835 91 -271 55 -396
176 -383 369 6 81 33 135 94 189 131 115 351 170 766 193 754 41 1598 -116
2246 -418 l92 -43 0 475 0 475 -67 30 c-463 209 -932 328 -1533 389 -139 15
-779 21 -900 10z"/>
<path d="M20890 7540 l0 -2110 1968 2 1967 3 3 433 2 432 -1485 0 -1485 0 0
425 0 425 1458 2 1457 3 3 428 2 427 -1460 0 -1460 0 0 390 0 390 1485 0 1485
0 0 430 0 430 -1970 0 -1970 0 0 -2110z"/>
<path d="M25670 7540 l0 -2110 485 0 485 0 0 1735 0 1735 30 0 29 0 90 -272
c49 -150 301 -923 561 -1718 260 -795 477 -1453 482 -1462 8 -17 56 -18 783
-18 727 0 775 1 783 18 5 9 263 790 573 1735 l564 1717 27 0 28 0 2 -1732 3
-1733 498 -3 497 -2 0 2110 0 2110 -888 0 -888 0 -565 -1770 -564 -1770 -32 0
c-31 0 -32 1 -60 93 -16 50 -272 847 -568 1770 l-538 1677 -909 0 -908 0 0
-2110z"/>
<path d="M32540 7540 l0 -2110 508 2 507 3 3 718 2 717 603 0 602 0 590 -720
589 -720 573 0 573 0 0 50 0 51 -564 673 c-310 370 -566 678 -570 684 -4 7 4
14 21 17 84 18 291 92 374 133 319 160 552 420 662 737 63 182 72 244 72 490
-1 190 -4 234 -24 325 -64 298 -177 510 -372 695 -179 171 -381 270 -686 337
-98 22 -101 22 -1780 25 l-1683 4 0 -2111z m3077 1229 c255 -28 424 -157 478
-364 19 -76 19 -234 0 -308 -45 -171 -162 -285 -355 -345 -50 -15 -157 -17
-1117 -19 l-1063 -4 0 526 0 525 980 0 c631 0 1015 -4 1077 -11z"/>
<path d="M37673 8463 c3 -1175 3 -1190 25 -1327 108 -667 392 -1139 877 -1459
568 -374 1492 -471 2220 -232 212 69 388 156 557 275 103 72 279 237 362 339
227 279 377 644 442 1081 16 103 18 239 21 1313 l4 1197 -511 0 -510 0 0
-1159 c0 -766 -4 -1186 -11 -1238 -24 -181 -81 -351 -167 -498 -65 -110 -237
-283 -348 -347 -223 -130 -479 -187 -784 -174 -605 25 -1003 339 -1126 886
-40 182 -44 292 -44 1438 l0 1092 -505 0 -506 0 4 -1187z"/>
<path d="M47912 7543 l3 -2108 515 0 515 0 3 828 2 827 1280 0 1280 0 0 -830
0 -830 475 0 475 0 0 2110 0 2110 -475 0 -475 0 0 -795 0 -795 -1280 0 -1280
0 0 795 0 795 -520 0 -520 0 2 -2107z"/>
</g>
</svg>
