<?xml version="1.0" standalone="no"?>
<!DOCTYPE svg PUBLIC "-//W3C//DTD SVG 20010904//EN"
 "http://www.w3.org/TR/2001/REC-SVG-20010904/DTD/svg10.dtd">
<svg version="1.0" xmlns="http://www.w3.org/2000/svg"
 width="1920.000000pt" height="348.000000pt" viewBox="0 0 1920.000000 348.000000"
 preserveAspectRatio="xMidYMid meet">

<g transform="translate(0.000000,348.000000) scale(0.100000,-0.100000)"
fill="#000000" stroke="none">
<path d="M745 3473 c-328 -30 -605 -252 -704 -564 -36 -114 -41 -213 -41 -870
l0 -637 103 32 c164 52 200 76 234 151 16 36 18 97 23 626 l5 585 37 75 c46
93 122 168 215 212 l68 32 1050 0 1050 0 66 -32 c121 -59 202 -152 240 -274
16 -51 19 -92 19 -256 0 -152 3 -194 13 -191 6 3 85 27 174 54 l163 49 0 151
c0 172 -10 238 -51 346 -68 177 -214 338 -381 422 -51 25 -129 56 -173 68 -80
22 -82 22 -1075 24 -547 0 -1013 -1 -1035 -3z"/>
<path d="M5440 3150 c-156 -15 -301 -56 -435 -123 -227 -112 -379 -288 -436
-504 -27 -101 -29 -277 -5 -377 46 -192 177 -342 396 -451 121 -61 189 -83
492 -160 381 -98 480 -139 556 -231 102 -124 52 -314 -110 -411 -154 -93 -450
-99 -633 -13 -117 56 -207 177 -222 299 l-6 51 -283 0 -284 0 0 -22 c0 -52 31
-221 50 -279 71 -210 214 -369 425 -470 182 -88 385 -129 635 -129 614 0 1005
267 1061 724 21 165 -12 339 -88 464 -80 131 -194 233 -348 310 -147 74 -217
96 -598 187 -350 83 -481 185 -464 364 6 73 30 124 80 174 118 118 398 153
604 75 80 -30 173 -122 202 -201 11 -32 21 -67 21 -77 0 -19 8 -20 281 -20
l282 0 -6 68 c-10 96 -42 204 -90 297 -78 152 -258 304 -449 379 -175 69 -409
97 -628 76z"/>
<path d="M7083 2153 c4 -1038 3 -1013 55 -1163 102 -291 345 -511 669 -605
198 -58 506 -71 710 -31 442 87 745 369 827 769 14 66 16 203 16 1037 l0 960
-290 0 -290 0 0 -913 c0 -995 2 -964 -57 -1084 -57 -116 -175 -214 -308 -256
-93 -29 -279 -31 -370 -3 -166 50 -282 155 -348 316 l-22 55 -5 940 -5 940
-293 3 -293 2 4 -967z"/>
<path d="M9890 1746 l0 -1376 290 0 290 0 0 485 0 485 213 0 212 0 259 -485
258 -485 319 0 c175 0 319 2 319 5 0 3 -126 236 -279 518 -154 281 -283 520
-286 529 -5 13 6 23 52 46 127 65 242 172 311 294 77 134 120 340 108 523 -27
428 -272 710 -701 808 -85 19 -128 21 -727 24 l-638 4 0 -1375z m1165 874 c96
-25 147 -53 206 -117 71 -75 93 -142 93 -283 0 -95 -4 -125 -22 -171 -31 -78
-90 -142 -166 -179 -96 -47 -187 -59 -458 -60 l-238 0 0 415 0 415 253 0 c221
0 264 -3 332 -20z"/>
<path d="M12410 1745 l0 -1375 295 0 295 0 0 565 0 565 555 0 555 0 0 240 0
240 -555 0 -555 0 0 330 0 330 620 0 620 0 -2 238 -3 237 -912 3 -913 2 0
-1375z"/>
<path d="M14670 1745 l0 -1375 930 0 930 0 0 240 0 240 -640 0 -640 0 0 325 0
325 590 0 590 0 0 240 0 240 -587 2 -588 3 -3 328 -2 327 635 0 635 0 0 240 0
240 -925 0 -925 0 0 -1375z"/>
<path d="M17030 1745 l0 -1375 290 0 290 0 0 485 0 485 214 0 214 0 258 -485
259 -485 323 0 323 0 -29 53 c-74 129 -552 1010 -550 1011 2 1 39 22 83 47
113 62 237 187 292 294 68 131 94 236 100 400 6 165 -11 283 -57 405 -114 295
-389 488 -755 530 -51 5 -342 10 -672 10 l-583 0 0 -1375z m1208 866 c131 -48
207 -124 243 -243 18 -59 21 -86 16 -171 -3 -64 -12 -121 -23 -151 -24 -63
-98 -145 -159 -175 -96 -48 -134 -53 -427 -58 l-278 -5 0 417 0 417 283 -4
c263 -4 286 -6 345 -27z"/>
<path d="M2121 2490 c-54 -11 -88 -42 -101 -89 -15 -55 -12 -1286 3 -1330 7
-19 25 -44 40 -55 26 -19 42 -21 186 -21 135 0 161 3 185 18 58 38 57 27 54
745 -3 609 -4 659 -21 683 -9 14 -30 32 -45 39 -34 16 -241 23 -301 10z"/>
<path d="M1083 2071 c-18 -5 -43 -16 -57 -24 -48 -32 -51 -59 -51 -522 0 -414
1 -431 20 -465 34 -58 71 -70 220 -70 105 0 138 4 171 19 70 32 69 28 69 531
0 409 -1 448 -18 473 -35 53 -59 61 -196 64 -69 1 -141 -2 -158 -6z"/>
<path d="M3353 2045 c-141 -45 -190 -75 -217 -134 -21 -45 -21 -59 -26 -631
l-5 -585 -32 -68 c-61 -129 -185 -229 -316 -257 -36 -7 -360 -10 -1052 -8
l-1000 3 -55 22 c-133 55 -232 158 -270 280 -17 56 -20 93 -20 259 0 107 -3
194 -7 194 -5 1 -86 -23 -182 -52 l-174 -53 6 -160 c7 -188 27 -279 88 -402
98 -197 285 -351 505 -415 l79 -23 1060 0 c1188 0 1101 -5 1270 74 225 106
386 308 440 554 13 63 15 160 13 754 l-3 682 -102 -34z"/>
</g>
</svg>
